<?xml version="1.0" encoding="UTF-8" standalone="no"?>
<!-- Generator: Gravit.io -->
<svg xmlns="http://www.w3.org/2000/svg" xmlns:xlink="http://www.w3.org/1999/xlink" style="isolation:isolate" viewBox="0 0 758.769 514" width="758.769" height="514"><defs><clipPath id="_clipPath_2prU2F4Ns3U98hIRxpIIS7R6gqbl3ZNV"><rect width="758.769" height="514"/></clipPath></defs><g clip-path="url(#_clipPath_2prU2F4Ns3U98hIRxpIIS7R6gqbl3ZNV)"><path d=" M 530.474 145.371 C 529.38 143.218 527.315 138.873 525.537 135.141 L 525.298 134.614 L 536.275 105.435 L 569.082 105.435 L 569.082 76.265 L 445.039 76.265 C 441.69 76.265 438.721 78.545 437.954 81.831 C 436.997 85.733 439.419 89.703 443.34 90.615 L 505.093 105.435 L 494.121 134.614 L 233.458 134.614 L 245.176 96.806 C 248.975 84.58 260.269 76.265 273.066 76.265 L 321.05 76.265 L 321.05 47.08 L 273.066 47.08 C 247.49 47.08 224.869 63.725 217.305 88.174 L 174.902 225.034 C 106.909 211.255 38.633 247.27 11.563 311.176 C -19.824 385.385 14.883 470.991 89.067 502.398 C 163.276 533.848 248.881 499.155 280.298 424.951 C 311.704 350.728 277.003 265.123 202.784 233.716 L 214.409 196.265 L 386.885 387.588 C 392.441 393.725 400.279 397.26 408.569 397.26 L 469.878 397.26 C 470.996 402.69 472.422 408.041 474.106 413.281 C 499.116 489.893 581.445 531.773 658.066 506.743 C 734.668 481.783 776.524 399.463 751.543 322.846 C 726.582 246.23 644.248 204.365 567.646 229.336 L 546.621 182.3 C 550.074 183.614 534.365 153.853 530.474 145.371 Z  M 224.434 163.784 L 483.189 163.784 L 407.134 366.494 L 224.434 163.784 L 224.434 163.784 Z  M 612.954 251.284 C 663.252 251.333 709.693 284.131 724.756 334.814 C 743.11 396.626 707.89 461.635 646.094 479.961 C 584.287 498.315 519.306 463.105 500.952 401.299 C 500.576 399.966 500.151 398.628 499.81 397.26 L 580.581 397.26 C 588.189 404.506 598.286 408.555 608.794 408.579 C 631.445 408.579 649.815 390.21 649.815 367.554 C 649.795 345.825 632.803 327.881 611.109 326.645 L 579.61 256.158 C 587.334 253.876 595.127 252.393 602.846 251.719 C 606.235 251.435 609.605 251.284 612.954 251.284 Z  M 146.636 251.333 C 153.11 251.363 159.668 251.958 166.23 253.12 L 132.021 363.745 C 129.659 371.435 133.911 379.614 141.65 381.998 C 149.336 384.36 157.471 380.069 159.844 372.383 L 194.111 261.748 C 252.841 288.374 278.896 357.515 252.27 416.22 C 225.679 474.951 156.48 500.996 97.749 474.37 C 39.042 447.788 12.964 378.599 39.59 319.859 C 58.857 277.378 101.173 251.02 146.636 251.333 L 146.636 251.333 Z  M 552.93 267.885 L 583.115 335.576 C 573.413 343.359 567.769 355.123 567.769 367.554 C 567.769 367.739 567.784 367.91 567.793 368.081 L 496.119 368.081 C 496.119 327.031 517.676 288.989 552.93 267.885 L 552.93 267.885 Z " fill="rgb(0,0,0)"/><linearGradient id="_lgradient_2" x1="0.2543446341217254" y1="0.08093204783002036" x2="0.897641793585159" y2="0.6686492978245039" gradientTransform="matrix(207.199,0,0,-184.972,525.3,184.97)" gradientUnits="userSpaceOnUse"><stop offset="0%" stop-opacity="1" style="stop-color:rgb(0,0,0)"/><stop offset="71.30434782608695%" stop-opacity="1" style="stop-color:rgb(204,0,0)"/></linearGradient><path d=" M 698.494 0 L 698.494 0.015 C 696.624 0.049 694.88 0.918 693.704 2.378 C 693.601 2.5 693.509 2.636 693.42 2.774 C 686.634 11.206 673.327 27.871 672.61 28.765 L 663.04 21.074 L 636.047 54.703 L 636.116 54.76 C 636.081 54.795 636.037 54.829 636.004 54.873 C 626.076 67.26 625.437 84.683 634.416 97.769 C 630.125 103.515 628.084 106.279 621.15 115.484 C 610.53 129.585 599.177 144.473 594.236 150.63 C 586.721 160.776 574.846 166.763 562.224 166.788 C 557.679 166.788 553.327 165.976 549.246 164.575 C 541.052 160.581 534.367 153.853 530.476 145.371 C 529.382 143.218 527.317 138.873 525.54 135.141 L 525.3 134.614 L 546.624 182.3 C 550.076 183.614 553.635 184.516 557.459 184.756 C 559.04 184.883 560.627 184.97 562.224 184.97 C 573.679 184.961 584.495 181.596 593.621 175.718 C 597.864 173.208 602.112 169.693 606.262 164.79 C 611.145 159.019 623.762 142.339 635.715 126.47 C 642.278 117.754 643.952 115.484 648.255 109.736 C 663.381 117.149 681.634 113.1 692.185 99.97 C 692.766 99.248 693.304 98.506 693.816 97.744 L 719.188 66.143 L 709.915 58.696 C 710.53 57.93 724.813 40.069 731.101 32.226 L 731.091 32.216 L 731.101 32.193 C 733.299 29.468 732.854 25.489 730.13 23.286 C 728.967 22.349 727.508 21.86 726.009 21.895 C 724.143 21.939 722.395 22.808 721.224 24.268 C 721.121 24.395 721.022 24.516 720.935 24.654 C 714.114 33.13 700.627 50.024 700.036 50.766 L 682.487 36.68 C 683.23 35.751 697.321 18.154 703.586 10.346 L 703.571 10.328 L 703.596 10.313 C 705.789 7.588 705.349 3.594 702.615 1.401 C 701.447 0.469 699.987 -0.034 698.494 0 L 698.494 0 Z " fill="url(#_lgradient_2)"/></g></svg>